<svg width="26" height="27" viewBox="0 0 26 27" fill="none" xmlns="http://www.w3.org/2000/svg">
<rect y="0.524902" width="26" height="26" rx="4" fill="#FAB82E"/>
<path fill-rule="evenodd" clip-rule="evenodd" d="M7.58585 6.77738C7.96092 6.4023 8.46963 6.19159 9.00006 6.19159H14.3334C14.5102 6.19159 14.6798 6.26183 14.8048 6.38685L18.8048 10.3869C18.9298 10.5119 19.0001 10.6814 19.0001 10.8583V18.8583C19.0001 19.3887 18.7893 19.8974 18.4143 20.2725C18.0392 20.6475 17.5305 20.8583 17.0001 20.8583H9.00006C8.46963 20.8583 7.96092 20.6475 7.58585 20.2725C7.21077 19.8974 7.00006 19.3887 7.00006 18.8583V8.19159C7.00006 7.66116 7.21077 7.15245 7.58585 6.77738ZM9.00006 7.52492C8.82325 7.52492 8.65368 7.59516 8.52866 7.72018C8.40363 7.84521 8.33339 8.01478 8.33339 8.19159V18.8583C8.33339 19.0351 8.40363 19.2046 8.52866 19.3297C8.65368 19.4547 8.82325 19.5249 9.00006 19.5249H17.0001C17.1769 19.5249 17.3464 19.4547 17.4715 19.3297C17.5965 19.2046 17.6667 19.0351 17.6667 18.8583V11.5249H14.3334C13.9652 11.5249 13.6667 11.2264 13.6667 10.8583V7.52492H9.00006ZM15.0001 8.46773L16.7239 10.1916H15.0001V8.46773ZM9.66673 11.5249C9.66673 11.1567 9.9652 10.8583 10.3334 10.8583H11.6667C12.0349 10.8583 12.3334 11.1567 12.3334 11.5249C12.3334 11.8931 12.0349 12.1916 11.6667 12.1916H10.3334C9.9652 12.1916 9.66673 11.8931 9.66673 11.5249ZM9.66673 14.1916C9.66673 13.8234 9.9652 13.5249 10.3334 13.5249H15.6667C16.0349 13.5249 16.3334 13.8234 16.3334 14.1916C16.3334 14.5598 16.0349 14.8583 15.6667 14.8583H10.3334C9.9652 14.8583 9.66673 14.5598 9.66673 14.1916ZM9.66673 16.8583C9.66673 16.4901 9.9652 16.1916 10.3334 16.1916H15.6667C16.0349 16.1916 16.3334 16.4901 16.3334 16.8583C16.3334 17.2264 16.0349 17.5249 15.6667 17.5249H10.3334C9.9652 17.5249 9.66673 17.2264 9.66673 16.8583Z" fill="#FFE3B4"/>
</svg>
