<svg width="17" height="17" viewBox="0 0 17 17" fill="none" xmlns="http://www.w3.org/2000/svg">
<g clip-path="url(#clip0_392_14642)">
<path d="M10.6127 9.97029C10.5771 9.94777 10.5478 9.91662 10.5275 9.87975C10.5072 9.84287 10.4965 9.80146 10.4965 9.75935V3.02435C10.4965 2.62653 10.3384 2.245 10.0571 1.96369C9.77581 1.68239 9.39428 1.52435 8.99645 1.52435C8.59863 1.52435 8.2171 1.68239 7.93579 1.96369C7.65449 2.245 7.49645 2.62653 7.49645 3.02435V9.75935C7.49639 9.80138 7.48573 9.84271 7.46547 9.87952C7.4452 9.91633 7.41598 9.94745 7.38051 9.96998C6.93621 10.2594 6.57512 10.6598 6.33293 11.1315C6.09074 11.6032 5.97584 12.1299 5.99958 12.6597C6.03533 13.4425 6.37599 14.1803 6.94869 14.7152C7.52139 15.2501 8.28067 15.5397 9.06413 15.522C9.84758 15.5043 10.593 15.1808 11.141 14.6206C11.689 14.0604 11.996 13.308 11.9965 12.5244C11.9967 12.0171 11.8702 11.5178 11.6286 11.0718C11.3869 10.6258 11.0377 10.2472 10.6127 9.97029V9.97029Z" stroke-width="1.00189" stroke-miterlimit="10" stroke-linecap="round"/>
<path d="M8.9964 4.02475V12.5248" stroke-width="1.00189" stroke-miterlimit="10" stroke-linecap="round"/>
<path class="paint"  d="M8.99732 14.0254C9.82636 14.0254 10.4984 13.3534 10.4984 12.5243C10.4984 11.6953 9.82636 11.0232 8.99732 11.0232C8.16828 11.0232 7.49622 11.6953 7.49622 12.5243C7.49622 13.3534 8.16828 14.0254 8.99732 14.0254Z" fill="#868686"/>
</g>
<defs>
<clipPath id="clip0_392_14642">
<rect width="16" height="16" transform="translate(0.996765 0.523163)"/>
</clipPath>
</defs>
</svg>
