<svg width="17" stroke="#868686" height="17" viewBox="0 0 17 17" fill="none" xmlns="http://www.w3.org/2000/svg">
<path d="M13.4991 10.5252C13.4991 13.2873 11.7602 15.0262 8.99808 15.0262C6.23592 15.0262 4.4971 13.2873 4.4971 10.5252C4.4971 7.5611 7.72374 3.55961 8.71333 2.40217C8.74854 2.36104 8.79224 2.32803 8.84142 2.3054C8.8906 2.28276 8.9441 2.27104 8.99824 2.27104C9.05238 2.27104 9.10587 2.28276 9.15505 2.3054C9.20423 2.32803 9.24793 2.36104 9.28314 2.40217C10.2724 3.55961 13.4991 7.5611 13.4991 10.5252Z" stroke-width="1.00189" stroke-miterlimit="10"/>
<path d="M11.7504 10.7747C11.7504 11.372 11.5131 11.9449 11.0907 12.3672C10.6684 12.7896 10.0955 13.0269 9.49823 13.0269"  stroke-width="1.00189" stroke-linecap="round" stroke-linejoin="round"/>
</svg>
