<svg width="189" height="193" viewBox="0 0 189 193" fill="none" xmlns="http://www.w3.org/2000/svg">
<rect x="54.4315" y="100.593" width="79" height="92" fill="#B3B9B9"/>
<path d="M0.431519 32.5927L54.4186 100.593H134.356L188.432 32.5927V0.592682H0.431519V32.5927Z" fill="#B3B9B9"/>
<g clip-path="url(#clip0_377_14560)">
<rect width="79" height="12" transform="matrix(-1 0 0 1 133.432 148.593)" fill="#F5F5F5"/>
<line y1="-1" x2="103.101" y2="-1" transform="matrix(-0.814647 0.579958 0.368052 0.929805 199.04 91.6027)" stroke="#B3B9B9" stroke-width="2"/>
<line y1="-1" x2="103.101" y2="-1" transform="matrix(-0.814647 0.579958 0.368052 0.929805 115.04 91.6027)" stroke="#B3B9B9" stroke-width="2"/>
<line y1="-1" x2="103.101" y2="-1" transform="matrix(-0.814647 0.579958 0.368052 0.929805 199.04 96.2062)" stroke="#B3B9B9" stroke-width="2"/>
<line y1="-1" x2="103.101" y2="-1" transform="matrix(-0.814647 0.579958 0.368052 0.929805 115.04 96.2062)" stroke="#B3B9B9" stroke-width="2"/>
<line y1="-1" x2="103.101" y2="-1" transform="matrix(-0.814647 0.579958 0.368052 0.929805 199.04 100.81)" stroke="#B3B9B9" stroke-width="2"/>
<line y1="-1" x2="103.101" y2="-1" transform="matrix(-0.814647 0.579958 0.368052 0.929805 115.04 100.81)" stroke="#B3B9B9" stroke-width="2"/>
<line y1="-1" x2="103.101" y2="-1" transform="matrix(-0.814647 0.579958 0.368052 0.929805 199.04 105.413)" stroke="#B3B9B9" stroke-width="2"/>
<line y1="-1" x2="103.101" y2="-1" transform="matrix(-0.814647 0.579958 0.368052 0.929805 115.04 105.413)" stroke="#B3B9B9" stroke-width="2"/>
<line y1="-1" x2="103.101" y2="-1" transform="matrix(-0.814647 0.579958 0.368052 0.929805 199.04 110.018)" stroke="#B3B9B9" stroke-width="2"/>
<line y1="-1" x2="103.101" y2="-1" transform="matrix(-0.814647 0.579958 0.368052 0.929805 115.04 110.018)" stroke="#B3B9B9" stroke-width="2"/>
<line y1="-1" x2="103.101" y2="-1" transform="matrix(-0.814647 0.579958 0.368052 0.929805 199.04 160.659)" stroke="#B3B9B9" stroke-width="2"/>
<line y1="-1" x2="103.101" y2="-1" transform="matrix(-0.814647 0.579958 0.368052 0.929805 115.04 160.659)" stroke="#B3B9B9" stroke-width="2"/>
<line y1="-1" x2="103.101" y2="-1" transform="matrix(-0.814647 0.579958 0.368052 0.929805 199.04 114.621)" stroke="#B3B9B9" stroke-width="2"/>
<line y1="-1" x2="103.101" y2="-1" transform="matrix(-0.814647 0.579958 0.368052 0.929805 115.04 114.621)" stroke="#B3B9B9" stroke-width="2"/>
<line y1="-1" x2="103.101" y2="-1" transform="matrix(-0.814647 0.579958 0.368052 0.929805 199.04 119.226)" stroke="#B3B9B9" stroke-width="2"/>
<line y1="-1" x2="103.101" y2="-1" transform="matrix(-0.814647 0.579958 0.368052 0.929805 115.04 119.226)" stroke="#B3B9B9" stroke-width="2"/>
<line y1="-1" x2="103.101" y2="-1" transform="matrix(-0.814647 0.579958 0.368052 0.929805 199.04 123.829)" stroke="#B3B9B9" stroke-width="2"/>
<line y1="-1" x2="103.101" y2="-1" transform="matrix(-0.814647 0.579958 0.368052 0.929805 115.04 123.829)" stroke="#B3B9B9" stroke-width="2"/>
<line y1="-1" x2="103.101" y2="-1" transform="matrix(-0.814647 0.579958 0.368052 0.929805 199.04 128.433)" stroke="#B3B9B9" stroke-width="2"/>
<line y1="-1" x2="103.101" y2="-1" transform="matrix(-0.814647 0.579958 0.368052 0.929805 115.04 128.433)" stroke="#B3B9B9" stroke-width="2"/>
<line y1="-1" x2="103.101" y2="-1" transform="matrix(-0.814647 0.579958 0.368052 0.929805 199.04 133.036)" stroke="#B3B9B9" stroke-width="2"/>
<line y1="-1" x2="103.101" y2="-1" transform="matrix(-0.814647 0.579958 0.368052 0.929805 115.04 133.036)" stroke="#B3B9B9" stroke-width="2"/>
<line y1="-1" x2="103.101" y2="-1" transform="matrix(-0.814647 0.579958 0.368052 0.929805 199.04 137.64)" stroke="#B3B9B9" stroke-width="2"/>
<line y1="-1" x2="103.101" y2="-1" transform="matrix(-0.814647 0.579958 0.368052 0.929805 115.04 137.64)" stroke="#B3B9B9" stroke-width="2"/>
<line y1="-1" x2="103.101" y2="-1" transform="matrix(-0.814647 0.579958 0.368052 0.929805 199.04 142.244)" stroke="#B3B9B9" stroke-width="2"/>
<line y1="-1" x2="103.101" y2="-1" transform="matrix(-0.814647 0.579958 0.368052 0.929805 115.04 142.244)" stroke="#B3B9B9" stroke-width="2"/>
<line y1="-1" x2="103.101" y2="-1" transform="matrix(-0.814647 0.579958 0.368052 0.929805 199.04 146.848)" stroke="#B3B9B9" stroke-width="2"/>
<line y1="-1" x2="103.101" y2="-1" transform="matrix(-0.814647 0.579958 0.368052 0.929805 115.04 146.848)" stroke="#B3B9B9" stroke-width="2"/>
<line y1="-1" x2="103.101" y2="-1" transform="matrix(-0.814647 0.579958 0.368052 0.929805 199.04 151.452)" stroke="#B3B9B9" stroke-width="2"/>
<line y1="-1" x2="103.101" y2="-1" transform="matrix(-0.814647 0.579958 0.368052 0.929805 115.04 151.452)" stroke="#B3B9B9" stroke-width="2"/>
<line y1="-1" x2="103.101" y2="-1" transform="matrix(-0.814647 0.579958 0.368052 0.929805 199.04 156.056)" stroke="#B3B9B9" stroke-width="2"/>
<line y1="-1" x2="103.101" y2="-1" transform="matrix(-0.814647 0.579958 0.368052 0.929805 115.04 156.056)" stroke="#B3B9B9" stroke-width="2"/>
</g>
<defs>
<clipPath id="clip0_377_14560">
<rect width="79" height="12" fill="white" transform="matrix(-1 0 0 1 133.432 148.593)"/>
</clipPath>
</defs>
</svg>
